<svg width="40" height="16" viewBox="0 0 40 16" xmlns="http://www.w3.org/2000/svg">
  <path d="M19.526 2.635v4.083h2.518c.6 0 1.096-.202 1.488-.605.403-.402.604-.881.604-1.434 0-.544-.201-1.022-.604-1.434-.392-.403-.888-.61-1.488-.61h-2.518zm0 5.52v4.736h-1.504V1.198h4.022c1.078 0 1.969.377 2.673 1.13.703.753 1.055 1.652 1.055 2.696 0 1.044-.352 1.943-1.055 2.696-.704.753-1.595 1.13-2.673 1.13h-2.518v.005zm6.769 2.368c0-.377.076-.736.227-1.076.15-.341.38-.654.686-.94.306-.285.67-.513 1.091-.681.421-.168.871-.252 1.35-.252.479 0 .929.084 1.35.252.421.168.784.396 1.091.681.306.286.535.599.686.94.15.34.227.699.227 1.076 0 .377-.076.736-.227 1.076-.15.341-.38.654-.686.94-.307.285-.67.513-1.091.681-.421.168-.871.252-1.35.252-.479 0-.929-.084-1.35-.252-.421-.168-.785-.396-1.091-.681-.306-.286-.535-.599-.686-.94-.151-.34-.227-.699-.227-1.076zm1.434 0c0 .612.222 1.146.666 1.602.444.456.999.684 1.663.684.664 0 1.218-.228 1.663-.684.444-.456.666-.99.666-1.602s-.222-1.146-.666-1.602c-.445-.456-.999-.684-1.663-.684-.664 0-1.219.228-1.663.684-.444.456-.666.99-.666 1.602z" fill="#5f6368"/>
  <path d="M5.42 7.04c0-.54.106-1.03.319-1.47.213-.442.51-.81.891-1.106.381-.295.832-.524 1.354-.686.521-.162 1.087-.243 1.697-.243.61 0 1.176.081 1.697.243.522.162.973.391 1.354.686.381.296.678.664.891 1.106.213.44.319.93.319 1.47 0 .54-.106 1.03-.319 1.47-.213.442-.51.81-.891 1.106-.381.295-.832.524-1.354.686-.521.162-1.087.243-1.697.243-.61 0-1.176-.081-1.697-.243-.522-.162-.973-.391-1.354-.686-.381-.296-.678-.664-.891-1.106-.213-.44-.319-.93-.319-1.47zm2.176 0c0 .396.081.756.243 1.08.162.324.384.585.666.783.282.198.61.297.984.297.374 0 .702-.099.984-.297.282-.198.504-.459.666-.783.162-.324.243-.684.243-1.08 0-.396-.081-.756-.243-1.08-.162-.324-.384-.585-.666-.783-.282-.198-.61-.297-.984-.297-.374 0-.702.099-.984.297-.282.198-.504.459-.666.783-.162.324-.243.684-.243 1.08z" fill="#4285f4"/>
  <path d="M1.85 7.04c0-.54.106-1.03.319-1.47.213-.442.51-.81.891-1.106.381-.295.832-.524 1.354-.686.521-.162 1.087-.243 1.697-.243.61 0 1.176.081 1.697.243.522.162.973.391 1.354.686.381.296.678.664.891 1.106.213.44.319.93.319 1.47 0 .54-.106 1.03-.319 1.47-.213.442-.51.81-.891 1.106-.381.295-.832.524-1.354.686-.521.162-1.087.243-1.697.243-.61 0-1.176-.081-1.697-.243-.522-.162-.973-.391-1.354-.686-.381-.296-.678-.664-.891-1.106-.213-.44-.319-.93-.319-1.47zm2.176 0c0 .396.081.756.243 1.08.162.324.384.585.666.783.282.198.61.297.984.297.374 0 .702-.099.984-.297.282-.198.504-.459.666-.783.162-.324.243-.684.243-1.08 0-.396-.081-.756-.243-1.08-.162-.324-.384-.585-.666-.783-.282-.198-.61-.297-.984-.297-.374 0-.702.099-.984.297-.282.198-.504.459-.666.783-.162.324-.243.684-.243 1.08z" fill="#ea4335"/>
  <path d="M31.9 1.12h1.568v9.792h-1.568V1.12zm7.41 3.888c1.056 0 1.896.384 2.52 1.152.624.768.936 1.8.936 3.096v3.648h-1.44V9.552c0-.896-.192-1.584-.576-2.064-.384-.48-.912-.72-1.584-.72-.672 0-1.2.24-1.584.72-.384.48-.576 1.168-.576 2.064v1.352h-1.44V5.44h1.44v.816c.256-.288.6-.528 1.032-.72.432-.192.896-.288 1.392-.288z" fill="#34a853"/>
</svg>
