<svg width="200" height="60" viewBox="0 0 200 60" xmlns="http://www.w3.org/2000/svg">
  <defs>
    <linearGradient id="logoGradientWhite" x1="0%" y1="0%" x2="100%" y2="0%">
      <stop offset="0%" style="stop-color:#FFFFFF;stop-opacity:1" />
      <stop offset="100%" style="stop-color:#F7FAFC;stop-opacity:1" />
    </linearGradient>
  </defs>
  
  <!-- Heart Icon -->
  <path d="M25 45C25 45 15 35 15 25C15 20 18 15 25 15C32 15 35 20 35 25C35 35 25 45 25 45Z" fill="url(#logoGradientWhite)"/>
  <path d="M25 15C30 10 40 15 40 25C40 35 25 45 25 45C25 45 10 35 10 25C10 15 20 10 25 15Z" fill="url(#logoGradientWhite)"/>
  
  <!-- Text -->
  <text x="55" y="35" font-family="Inter, Arial, sans-serif" font-size="24" font-weight="700" fill="#FFFFFF">HopeFund</text>
</svg>
